<svg width="110" height="26" viewBox="0 0 110 26" fill="none" xmlns="http://www.w3.org/2000/svg">
<path d="M13.7691 0.5L16.8718 10.0492H26.9123L18.7894 15.9508L21.8921 25.5L13.7691 19.5983L5.64608 25.5L8.74879 15.9508L0.625793 10.0492H10.6664L13.7691 0.5Z" fill="#44C6E9"/>
<path d="M55.3129 0.5L58.4156 10.0492H68.4562L60.3332 15.9508L63.4359 25.5L55.3129 19.5983L47.1899 25.5L50.2926 15.9508L42.1696 10.0492H52.2102L55.3129 0.5Z" fill="#44C6E9"/>
<path d="M96.8567 0.5L99.9594 10.0492H110L101.877 15.9508L104.98 25.5L96.8567 19.5983L88.7337 25.5L91.8364 15.9508L83.7134 10.0492H93.754L96.8567 0.5Z" fill="#44C6E9"/>
</svg>
