<svg width="32" height="32" viewBox="0 0 32 32" fill="none" xmlns="http://www.w3.org/2000/svg">
<path d="M16 22V10M10 19V13M22 19V13M23.5 3.00702C21.2207 1.68837 18.6332 0.99596 16 1.00002C7.7155 1.00002 1 7.71552 1 16C1 18.4 1.564 20.668 2.5645 22.6795C2.8315 23.2135 2.92 23.824 2.7655 24.4015L1.873 27.7405C1.78494 28.0709 1.78527 28.4185 1.87396 28.7487C1.96265 29.0789 2.13659 29.3799 2.37834 29.6217C2.62008 29.8634 2.92113 30.0374 3.2513 30.1261C3.58147 30.2148 3.92916 30.2151 4.2595 30.127L7.5985 29.2345C8.17811 29.0887 8.79104 29.1596 9.322 29.434C11.3964 30.467 13.6827 31.0031 16 31C24.2845 31 31 24.2845 31 16C31 13.2685 30.2695 10.705 28.993 8.50002" stroke="#555555" stroke-width="1.5" stroke-linecap="round"/>
</svg>
