<svg width="16" height="16" viewBox="0 0 16 16" fill="none" xmlns="http://www.w3.org/2000/svg">
<path d="M14.5476 12.7778C14.3784 12.7777 14.2162 12.7105 14.0966 12.5909C13.977 12.4713 13.9098 12.3091 13.9097 12.1399L13.9089 2.84873L1.75912 14.9985C1.63941 15.1182 1.47705 15.1855 1.30776 15.1855C1.13847 15.1855 0.97611 15.1182 0.856403 14.9985C0.736696 14.8788 0.669444 14.7165 0.669445 14.5472C0.669445 14.3779 0.736695 14.2155 0.856403 14.0958L13.0062 1.94602L3.715 1.94527C3.54971 1.93943 3.39314 1.86967 3.27827 1.75067C3.1634 1.63168 3.0992 1.47274 3.0992 1.30735C3.0992 1.14195 3.1634 0.983019 3.27827 0.864023C3.39314 0.745028 3.54971 0.675264 3.715 0.66943L14.5476 0.669429C14.7167 0.669534 14.8789 0.736777 14.9985 0.856387C15.1181 0.975998 15.1854 1.13819 15.1855 1.30735L15.1855 12.1399C15.1854 12.3091 15.1181 12.4713 14.9985 12.5909C14.8789 12.7105 14.7167 12.7777 14.5476 12.7778Z" fill="#44C6E9"/>
</svg>
