<svg width="151" height="25" viewBox="0 0 151 25" fill="none" xmlns="http://www.w3.org/2000/svg">
<path d="M13.2253 0L16.328 9.54915H26.3686L18.2456 15.4508L21.3483 25L13.2253 19.0983L5.10232 25L8.20502 15.4508L0.0820312 9.54915H10.1226L13.2253 0Z" fill="#44C6E9"/>
<path d="M54.7691 0L57.8718 9.54915H67.9124L59.7894 15.4508L62.8921 25L54.7691 19.0983L46.6461 25L49.7488 15.4508L41.6259 9.54915H51.6664L54.7691 0Z" fill="#44C6E9"/>
<path d="M96.313 0L99.4157 9.54915H109.456L101.333 15.4508L104.436 25L96.313 19.0983L88.19 25L91.2927 15.4508L83.1697 9.54915H93.2102L96.313 0Z" fill="#44C6E9"/>
<path d="M137.857 0L140.959 9.54915H151L142.877 15.4508L145.98 25L137.857 19.0983L129.734 25L132.836 15.4508L124.714 9.54915H134.754L137.857 0Z" fill="#44C6E9"/>
</svg>
