<svg width="110" height="25" viewBox="0 0 110 25" fill="none" xmlns="http://www.w3.org/2000/svg">
<path d="M13.7691 0L16.8718 9.54915H26.9123L18.7894 15.4508L21.8921 25L13.7691 19.0983L5.64608 25L8.74879 15.4508L0.625793 9.54915H10.6664L13.7691 0Z" fill="#44C6E9"/>
<path d="M55.3129 0L58.4156 9.54915H68.4562L60.3332 15.4508L63.4359 25L55.3129 19.0983L47.1899 25L50.2926 15.4508L42.1696 9.54915H52.2102L55.3129 0Z" fill="#44C6E9"/>
<path d="M96.8567 0L99.9594 9.54915H110L101.877 15.4508L104.98 25L96.8567 19.0983L88.7337 25L91.8364 15.4508L83.7134 9.54915H93.754L96.8567 0Z" fill="#44C6E9"/>
</svg>
