<svg width="192" height="25" viewBox="0 0 192 25" fill="none" xmlns="http://www.w3.org/2000/svg">
<path d="M54.2252 0L57.328 9.54915H67.3685L59.2455 15.4508L62.3482 25L54.2252 19.0983L46.1023 25L49.205 15.4508L41.082 9.54915H51.1225L54.2252 0Z" fill="#44C6E9"/>
<path d="M95.7691 0L98.8718 9.54915H108.912L100.789 15.4508L103.892 25L95.7691 19.0983L87.6461 25L90.7488 15.4508L82.6258 9.54915H92.6664L95.7691 0Z" fill="#44C6E9"/>
<path d="M137.313 0L140.416 9.54915H150.456L142.333 15.4508L145.436 25L137.313 19.0983L129.19 25L132.293 15.4508L124.17 9.54915H134.21L137.313 0Z" fill="#44C6E9"/>
<path d="M178.857 0L181.959 9.54915H192L183.877 15.4508L186.98 25L178.857 19.0983L170.734 25L173.836 15.4508L165.713 9.54915H175.754L178.857 0Z" fill="#44C6E9"/>
<path d="M13.1433 0L16.246 9.54915H26.2866L18.1636 15.4508L21.2663 25L13.1433 19.0983L5.02028 25L8.12299 15.4508L0 9.54915H10.0406L13.1433 0Z" fill="#44C6E9"/>
</svg>
