<svg width="31" height="30" viewBox="0 0 31 30" fill="none" xmlns="http://www.w3.org/2000/svg">
<path d="M15.5 8.07839C14.1307 8.07839 12.7922 8.48442 11.6537 9.24514C10.5152 10.0059 9.6279 11.0871 9.10391 12.3521C8.57992 13.6171 8.44282 15.0091 8.70995 16.3521C8.97708 17.695 9.63644 18.9286 10.6046 19.8968C11.5729 20.865 12.8064 21.5244 14.1494 21.7915C15.4923 22.0586 16.8843 21.9215 18.1493 21.3976C19.4144 20.8736 20.4956 19.9862 21.2563 18.8477C22.017 17.7092 22.4231 16.3707 22.4231 15.0015C22.4212 13.1659 21.6912 11.4061 20.3932 10.1082C19.0953 8.8103 17.3355 8.0803 15.5 8.07839ZM15.5 19.6168C14.5872 19.6168 13.6948 19.3462 12.9358 18.839C12.1768 18.3319 11.5853 17.611 11.2359 16.7677C10.8866 15.9243 10.7952 14.9963 10.9733 14.101C11.1514 13.2058 11.591 12.3834 12.2364 11.7379C12.8819 11.0924 13.7043 10.6528 14.5996 10.4748C15.4949 10.2967 16.4229 10.3881 17.2662 10.7374C18.1096 11.0867 18.8304 11.6783 19.3376 12.4373C19.8447 13.1963 20.1154 14.0886 20.1154 15.0015C20.1154 16.2255 19.6291 17.3995 18.7636 18.265C17.898 19.1306 16.7241 19.6168 15.5 19.6168ZM22.4231 0.00146484H8.57692C6.43549 0.00375555 4.38243 0.855451 2.86821 2.36967C1.35399 3.88389 0.502291 5.93696 0.5 8.07839V21.9245C0.502291 24.066 1.35399 26.119 2.86821 27.6333C4.38243 29.1475 6.43549 29.9992 8.57692 30.0015H22.4231C24.5645 29.9992 26.6176 29.1475 28.1318 27.6333C29.646 26.119 30.4977 24.066 30.5 21.9245V8.07839C30.4977 5.93696 29.646 3.88389 28.1318 2.36967C26.6176 0.855451 24.5645 0.00375555 22.4231 0.00146484ZM28.1923 21.9245C28.1923 23.4546 27.5845 24.9221 26.5025 26.004C25.4206 27.0859 23.9532 27.6938 22.4231 27.6938H8.57692C7.04683 27.6938 5.5794 27.0859 4.49746 26.004C3.41552 24.9221 2.80769 23.4546 2.80769 21.9245V8.07839C2.80769 6.54829 3.41552 5.08087 4.49746 3.99893C5.5794 2.91699 7.04683 2.30916 8.57692 2.30916H22.4231C23.9532 2.30916 25.4206 2.91699 26.5025 3.99893C27.5845 5.08087 28.1923 6.54829 28.1923 8.07839V21.9245ZM24.7308 7.50146C24.7308 7.84378 24.6293 8.1784 24.4391 8.46303C24.2489 8.74765 23.9786 8.96949 23.6623 9.10049C23.3461 9.23148 22.9981 9.26576 22.6623 9.19898C22.3266 9.1322 22.0182 8.96736 21.7762 8.7253C21.5341 8.48325 21.3693 8.17486 21.3025 7.83912C21.2357 7.50339 21.27 7.15538 21.401 6.83913C21.532 6.52287 21.7538 6.25256 22.0384 6.06238C22.3231 5.8722 22.6577 5.7707 23 5.7707C23.459 5.7707 23.8993 5.95304 24.2238 6.27763C24.5484 6.60221 24.7308 7.04244 24.7308 7.50146Z" fill="#FFF9FD"/>
</svg>
