<svg width="31" height="30" viewBox="0 0 31 30" fill="none" xmlns="http://www.w3.org/2000/svg">
<path d="M27.1667 0.00146484C28.0507 0.00146484 28.8986 0.352654 29.5237 0.977775C30.1488 1.6029 30.5 2.45074 30.5 3.3348V26.6681C30.5 27.5522 30.1488 28.4 29.5237 29.0252C28.8986 29.6503 28.0507 30.0015 27.1667 30.0015H3.83333C2.94928 30.0015 2.10143 29.6503 1.47631 29.0252C0.851189 28.4 0.5 27.5522 0.5 26.6681V3.3348C0.5 2.45074 0.851189 1.6029 1.47631 0.977775C2.10143 0.352654 2.94928 0.00146484 3.83333 0.00146484H27.1667ZM26.3333 25.8348V17.0015C26.3333 15.5605 25.7609 14.1785 24.7419 13.1595C23.723 12.1406 22.341 11.5681 20.9 11.5681C19.4833 11.5681 17.8333 12.4348 17.0333 13.7348V11.8848H12.3833V25.8348H17.0333V17.6181C17.0333 16.3348 18.0667 15.2848 19.35 15.2848C19.9688 15.2848 20.5623 15.5306 20.9999 15.9682C21.4375 16.4058 21.6833 16.9993 21.6833 17.6181V25.8348H26.3333ZM6.96667 9.26813C7.70927 9.26813 8.42146 8.97313 8.94657 8.44803C9.47167 7.92293 9.76667 7.21074 9.76667 6.46813C9.76667 4.91813 8.51667 3.65146 6.96667 3.65146C6.21964 3.65146 5.50321 3.94822 4.97498 4.47645C4.44675 5.00467 4.15 5.72111 4.15 6.46813C4.15 8.01813 5.41667 9.26813 6.96667 9.26813ZM9.28333 25.8348V11.8848H4.66667V25.8348H9.28333Z" fill="#FFF9FD"/>
</svg>
