<svg width="30" height="30" viewBox="0 0 30 30" fill="none" xmlns="http://www.w3.org/2000/svg">
<mask id="path-1-inside-1_30_194" fill="white">
<path d="M18.3982 1.90689C18.4293 1.79027 18.4831 1.68092 18.5565 1.5851C18.6298 1.48928 18.7214 1.40886 18.8259 1.34844C18.9304 1.28803 19.0457 1.2488 19.1654 1.233C19.285 1.2172 19.4066 1.22515 19.5232 1.25638C21.7414 1.83499 23.7652 2.9945 25.3862 4.61547C27.0072 6.23644 28.1667 8.26025 28.7453 10.4784C28.7765 10.595 28.7845 10.7166 28.7687 10.8363C28.7529 10.9559 28.7136 11.0713 28.6532 11.1758C28.5928 11.2803 28.5124 11.3718 28.4166 11.4452C28.3207 11.5186 28.2114 11.5724 28.0948 11.6034C28.0174 11.6241 27.9376 11.6343 27.8575 11.6341C27.6552 11.6342 27.4585 11.5675 27.2979 11.4443C27.1374 11.3211 27.022 11.1484 26.9697 10.9529C26.473 9.04758 25.4771 7.30916 24.0848 5.91684C22.6925 4.52452 20.9541 3.52866 19.0487 3.03191C18.9321 3.00082 18.8228 2.94704 18.7269 2.87366C18.6311 2.80028 18.5507 2.70872 18.4903 2.60424C18.4299 2.49976 18.3906 2.38439 18.3748 2.26473C18.359 2.14507 18.367 2.02348 18.3982 1.90689ZM17.8242 7.92993C20.0513 8.52382 21.4778 9.95036 22.0717 12.1774C22.124 12.3729 22.2394 12.5456 22.3999 12.6688C22.5604 12.792 22.7571 12.8587 22.9595 12.8586C23.0396 12.8589 23.1194 12.8486 23.1967 12.828C23.3134 12.7969 23.4227 12.7431 23.5185 12.6697C23.6144 12.5963 23.6948 12.5048 23.7552 12.4003C23.8156 12.2958 23.8548 12.1804 23.8706 12.0608C23.8864 11.9411 23.8785 11.8195 23.8473 11.7029C23.0819 8.83912 21.1625 6.91971 18.2987 6.1544C18.1821 6.12324 18.0606 6.11535 17.9409 6.13118C17.8213 6.14701 17.7059 6.18625 17.6015 6.24666C17.3905 6.36865 17.2366 6.56946 17.1737 6.80491C17.1108 7.04036 17.144 7.29117 17.266 7.50215C17.388 7.71313 17.5888 7.86701 17.8242 7.92993ZM29.9836 22.7771C29.7213 24.7779 28.7394 26.6149 27.2213 27.9445C25.7033 29.2741 23.753 30.0054 21.735 30.0016C9.75014 30.0016 1.52638e-05 20.2515 1.52638e-05 8.26667C-0.00385074 6.24936 0.726789 4.29963 2.05546 2.78168C3.38412 1.26372 5.21995 0.281364 7.22 0.0180943C7.68042 -0.037857 8.14655 0.0570778 8.54841 0.288641C8.95026 0.520204 9.26614 0.875895 9.4486 1.30229L12.6782 8.51157C12.8208 8.83794 12.8798 9.19471 12.8499 9.54962C12.82 9.90452 12.7021 10.2464 12.5068 10.5442C12.4871 10.5746 12.4656 10.6037 12.4425 10.6315L9.21748 14.4673C9.1979 14.507 9.18771 14.5507 9.18771 14.5951C9.18771 14.6394 9.1979 14.6831 9.21748 14.7229C10.3899 17.1229 12.9063 19.6209 15.34 20.7918C15.3806 20.8104 15.425 20.8192 15.4697 20.8176C15.5143 20.816 15.5579 20.804 15.5972 20.7826L19.3763 17.5683C19.4033 17.5448 19.4319 17.5233 19.462 17.504C19.7586 17.3063 20.0997 17.1857 20.4547 17.1531C20.8096 17.1205 21.1671 17.1769 21.4947 17.3173L28.7254 20.5576C29.1461 20.7441 29.4956 21.0611 29.7222 21.4616C29.9488 21.8621 30.0404 22.325 29.9836 22.7816V22.7771ZM28.1636 22.5505C28.1688 22.4865 28.1537 22.4225 28.1204 22.3676C28.0872 22.3126 28.0375 22.2696 27.9784 22.2444L20.7462 19.004C20.7067 18.9888 20.6643 18.9823 20.6221 18.9849C20.5798 18.9876 20.5386 18.9993 20.5013 19.0194L16.7237 22.2337C16.6961 22.2566 16.6671 22.2781 16.638 22.298C16.3298 22.5034 15.9737 22.6256 15.6043 22.6524C15.2349 22.6792 14.8649 22.6098 14.5303 22.451C11.7201 21.0934 8.91901 18.3183 7.56134 15.5341C7.40165 15.2015 7.33057 14.8332 7.35497 14.465C7.37937 14.0969 7.49843 13.7412 7.70062 13.4325C7.72033 13.4019 7.74233 13.3727 7.76644 13.3453L10.99 9.50954C11.0084 9.46945 11.0179 9.42585 11.0179 9.38173C11.0179 9.33761 11.0084 9.29401 10.99 9.25393L7.76644 2.03853C7.74517 1.98062 7.70689 1.93049 7.65664 1.89471C7.60638 1.85893 7.54649 1.83917 7.4848 1.83802H7.4496C5.89286 2.0451 4.46471 2.81172 3.43184 3.99472C2.39896 5.17772 1.83198 6.69622 1.83677 8.26667C1.83677 19.2382 10.7634 28.1649 21.735 28.1649C23.3057 28.1696 24.8244 27.6024 26.0074 26.5692C27.1904 25.5361 27.9569 24.1075 28.1636 22.5505Z"/>
</mask>
<path d="M18.3982 1.90689C18.4293 1.79027 18.4831 1.68092 18.5565 1.5851C18.6298 1.48928 18.7214 1.40886 18.8259 1.34844C18.9304 1.28803 19.0457 1.2488 19.1654 1.233C19.285 1.2172 19.4066 1.22515 19.5232 1.25638C21.7414 1.83499 23.7652 2.9945 25.3862 4.61547C27.0072 6.23644 28.1667 8.26025 28.7453 10.4784C28.7765 10.595 28.7845 10.7166 28.7687 10.8363C28.7529 10.9559 28.7136 11.0713 28.6532 11.1758C28.5928 11.2803 28.5124 11.3718 28.4166 11.4452C28.3207 11.5186 28.2114 11.5724 28.0948 11.6034C28.0174 11.6241 27.9376 11.6343 27.8575 11.6341C27.6552 11.6342 27.4585 11.5675 27.2979 11.4443C27.1374 11.3211 27.022 11.1484 26.9697 10.9529C26.473 9.04758 25.4771 7.30916 24.0848 5.91684C22.6925 4.52452 20.9541 3.52866 19.0487 3.03191C18.9321 3.00082 18.8228 2.94704 18.7269 2.87366C18.6311 2.80028 18.5507 2.70872 18.4903 2.60424C18.4299 2.49976 18.3906 2.38439 18.3748 2.26473C18.359 2.14507 18.367 2.02348 18.3982 1.90689ZM17.8242 7.92993C20.0513 8.52382 21.4778 9.95036 22.0717 12.1774C22.124 12.3729 22.2394 12.5456 22.3999 12.6688C22.5604 12.792 22.7571 12.8587 22.9595 12.8586C23.0396 12.8589 23.1194 12.8486 23.1967 12.828C23.3134 12.7969 23.4227 12.7431 23.5185 12.6697C23.6144 12.5963 23.6948 12.5048 23.7552 12.4003C23.8156 12.2958 23.8548 12.1804 23.8706 12.0608C23.8864 11.9411 23.8785 11.8195 23.8473 11.7029C23.0819 8.83912 21.1625 6.91971 18.2987 6.1544C18.1821 6.12324 18.0606 6.11535 17.9409 6.13118C17.8213 6.14701 17.7059 6.18625 17.6015 6.24666C17.3905 6.36865 17.2366 6.56946 17.1737 6.80491C17.1108 7.04036 17.144 7.29117 17.266 7.50215C17.388 7.71313 17.5888 7.86701 17.8242 7.92993ZM29.9836 22.7771C29.7213 24.7779 28.7394 26.6149 27.2213 27.9445C25.7033 29.2741 23.753 30.0054 21.735 30.0016C9.75014 30.0016 1.52638e-05 20.2515 1.52638e-05 8.26667C-0.00385074 6.24936 0.726789 4.29963 2.05546 2.78168C3.38412 1.26372 5.21995 0.281364 7.22 0.0180943C7.68042 -0.037857 8.14655 0.0570778 8.54841 0.288641C8.95026 0.520204 9.26614 0.875895 9.4486 1.30229L12.6782 8.51157C12.8208 8.83794 12.8798 9.19471 12.8499 9.54962C12.82 9.90452 12.7021 10.2464 12.5068 10.5442C12.4871 10.5746 12.4656 10.6037 12.4425 10.6315L9.21748 14.4673C9.1979 14.507 9.18771 14.5507 9.18771 14.5951C9.18771 14.6394 9.1979 14.6831 9.21748 14.7229C10.3899 17.1229 12.9063 19.6209 15.34 20.7918C15.3806 20.8104 15.425 20.8192 15.4697 20.8176C15.5143 20.816 15.5579 20.804 15.5972 20.7826L19.3763 17.5683C19.4033 17.5448 19.4319 17.5233 19.462 17.504C19.7586 17.3063 20.0997 17.1857 20.4547 17.1531C20.8096 17.1205 21.1671 17.1769 21.4947 17.3173L28.7254 20.5576C29.1461 20.7441 29.4956 21.0611 29.7222 21.4616C29.9488 21.8621 30.0404 22.325 29.9836 22.7816V22.7771ZM28.1636 22.5505C28.1688 22.4865 28.1537 22.4225 28.1204 22.3676C28.0872 22.3126 28.0375 22.2696 27.9784 22.2444L20.7462 19.004C20.7067 18.9888 20.6643 18.9823 20.6221 18.9849C20.5798 18.9876 20.5386 18.9993 20.5013 19.0194L16.7237 22.2337C16.6961 22.2566 16.6671 22.2781 16.638 22.298C16.3298 22.5034 15.9737 22.6256 15.6043 22.6524C15.2349 22.6792 14.8649 22.6098 14.5303 22.451C11.7201 21.0934 8.91901 18.3183 7.56134 15.5341C7.40165 15.2015 7.33057 14.8332 7.35497 14.465C7.37937 14.0969 7.49843 13.7412 7.70062 13.4325C7.72033 13.4019 7.74233 13.3727 7.76644 13.3453L10.99 9.50954C11.0084 9.46945 11.0179 9.42585 11.0179 9.38173C11.0179 9.33761 11.0084 9.29401 10.99 9.25393L7.76644 2.03853C7.74517 1.98062 7.70689 1.93049 7.65664 1.89471C7.60638 1.85893 7.54649 1.83917 7.4848 1.83802H7.4496C5.89286 2.0451 4.46471 2.81172 3.43184 3.99472C2.39896 5.17772 1.83198 6.69622 1.83677 8.26667C1.83677 19.2382 10.7634 28.1649 21.735 28.1649C23.3057 28.1696 24.8244 27.6024 26.0074 26.5692C27.1904 25.5361 27.9569 24.1075 28.1636 22.5505Z" fill="#555555"/>
<path d="M18.3982 1.90689L20.3301 2.4244L20.3307 2.42212L18.3982 1.90689ZM19.5232 1.25638L19.0057 3.1883L19.0184 3.19162L19.5232 1.25638ZM28.7453 10.4784L26.81 10.9832L26.8134 10.9959L28.7453 10.4784ZM28.0948 11.6034L28.6094 13.5361L28.61 13.5359L28.0948 11.6034ZM27.8575 11.6341L27.8647 9.63405L27.8563 9.63406L27.8575 11.6341ZM26.9697 10.9529L25.0344 11.4575L25.0376 11.4696L26.9697 10.9529ZM19.0487 3.03191L18.5335 4.96443L18.5442 4.96722L19.0487 3.03191ZM17.8242 7.92993L17.3079 9.86212L17.3089 9.8624L17.8242 7.92993ZM22.0717 12.1774L20.1393 12.6928L20.1396 12.6941L22.0717 12.1774ZM22.9595 12.8586L22.9667 10.8586L22.9583 10.8586L22.9595 12.8586ZM23.1967 12.828L23.7114 14.7606L23.712 14.7604L23.1967 12.828ZM23.8473 11.7029L21.9151 12.2193L21.9154 12.2204L23.8473 11.7029ZM18.2987 6.1544L17.7824 8.08659L17.7824 8.08659L18.2987 6.1544ZM17.6015 6.24666L16.6003 4.51527L17.6015 6.24666ZM29.9836 22.7771H31.9836L28.0005 22.5172L29.9836 22.7771ZM21.735 30.0016L21.7387 28.0016H21.735V30.0016ZM1.52638e-05 8.26667H2.00002L2.00001 8.26284L1.52638e-05 8.26667ZM7.22 0.0180943L6.97873 -1.9673L6.96886 -1.9661L6.95899 -1.9648L7.22 0.0180943ZM9.4486 1.30229L7.60988 2.08912L7.6165 2.1046L7.62339 2.11996L9.4486 1.30229ZM12.6782 8.51157L14.5109 7.71082L14.5072 7.70234L14.5035 7.6939L12.6782 8.51157ZM12.5068 10.5442L10.8341 9.44785L10.8295 9.45492L12.5068 10.5442ZM12.4425 10.6315L13.9734 11.9186L13.9798 11.9108L12.4425 10.6315ZM9.21748 14.4673L7.68666 13.1802L7.53047 13.3659L7.42325 13.5837L9.21748 14.4673ZM9.18771 14.5951H7.18771H9.18771ZM9.21748 14.7229L11.0145 13.845L11.0117 13.8393L9.21748 14.7229ZM15.34 20.7918L14.4729 22.5941L14.4915 22.603L14.5102 22.6116L15.34 20.7918ZM15.5972 20.7826L16.5546 22.5386L16.7358 22.4398L16.8929 22.3061L15.5972 20.7826ZM19.3763 17.5683L20.6721 19.0918L20.6808 19.0843L20.6895 19.0768L19.3763 17.5683ZM19.462 17.504L20.5424 19.1871L20.557 19.1777L20.5714 19.1681L19.462 17.504ZM21.4947 17.3173L22.3126 15.4922L22.2975 15.4854L22.2824 15.4789L21.4947 17.3173ZM28.7254 20.5576L27.9075 22.3828L27.915 22.3861L28.7254 20.5576ZM29.9836 22.7816H27.9836L31.9682 23.0289L29.9836 22.7816ZM28.1636 22.5505L30.1462 22.8138L30.1531 22.7622L30.1572 22.7104L28.1636 22.5505ZM27.9784 22.2444L27.1607 24.0696L27.1777 24.0772L27.1948 24.0845L27.9784 22.2444ZM20.7462 19.004L21.564 17.1789L21.5156 17.1572L21.4662 17.1381L20.7462 19.004ZM20.5013 19.0194L19.5546 17.2576L19.3672 17.3583L19.2052 17.4961L20.5013 19.0194ZM16.7237 22.2337L18.0041 23.7701L18.012 23.7635L18.0198 23.7569L16.7237 22.2337ZM16.638 22.298L17.7476 23.9619L17.7575 23.9553L17.7673 23.9486L16.638 22.298ZM14.5303 22.451L13.6603 24.2519L13.6728 24.2579L14.5303 22.451ZM7.56134 15.5341L5.75828 16.3996L5.76368 16.4107L7.56134 15.5341ZM7.70062 13.4325L9.37364 14.5285L9.37866 14.5208L9.38361 14.5131L7.70062 13.4325ZM7.76644 13.3453L9.26761 14.6669L9.28278 14.6496L9.29756 14.632L7.76644 13.3453ZM10.99 9.50954L12.5211 10.7963L12.6947 10.5897L12.8073 10.3445L10.99 9.50954ZM10.99 9.25393L9.1639 10.0697L9.1682 10.0793L9.1726 10.0889L10.99 9.25393ZM7.76644 2.03853L5.88911 2.72818L5.9126 2.79213L5.94039 2.85433L7.76644 2.03853ZM7.4848 1.83802L7.52214 -0.161636L7.50347 -0.161985H7.4848V1.83802ZM7.4496 1.83802V-0.161985H7.31716L7.18588 -0.144521L7.4496 1.83802ZM1.83677 8.26667H3.83678L3.83676 8.26057L1.83677 8.26667ZM21.735 28.1649L21.741 26.1649H21.735V28.1649ZM20.3307 2.42212C20.2941 2.55947 20.2307 2.68826 20.1443 2.80111L16.9686 0.369095C16.7354 0.673592 16.5645 1.02107 16.4657 1.39167L20.3307 2.42212ZM20.1443 2.80111C20.0579 2.91396 19.9501 3.00868 19.827 3.07983L17.8247 -0.382948C17.4927 -0.190962 17.2018 0.064589 16.9686 0.369095L20.1443 2.80111ZM19.827 3.07983C19.704 3.15099 19.5681 3.19719 19.4272 3.21579L18.9036 -0.749794C18.5234 -0.699594 18.1568 -0.574935 17.8247 -0.382948L19.827 3.07983ZM19.4272 3.21579C19.2862 3.2344 19.143 3.22504 19.0057 3.18826L20.0407 -0.675513C19.6702 -0.774754 19.2838 -0.799995 18.9036 -0.749794L19.4272 3.21579ZM19.0184 3.19162C20.8925 3.68048 22.6024 4.66014 23.972 6.02968L26.8004 3.20126C24.928 1.32886 22.5903 -0.0105106 20.028 -0.678869L19.0184 3.19162ZM23.972 6.02968C25.3415 7.39923 26.3212 9.10913 26.81 10.9832L30.6805 9.97362C30.0122 7.41138 28.6728 5.07366 26.8004 3.20126L23.972 6.02968ZM26.8134 10.9959C26.7766 10.8586 26.7673 10.7154 26.7859 10.5745L30.7514 11.098C30.8016 10.7178 30.7764 10.3314 30.6772 9.96093L26.8134 10.9959ZM26.7859 10.5745C26.8045 10.4336 26.8507 10.2977 26.9218 10.1746L30.3846 12.1769C30.5766 11.8449 30.7012 11.4783 30.7514 11.098L26.7859 10.5745ZM26.9218 10.1746C26.993 10.0516 27.0877 9.94376 27.2005 9.85733L29.6326 13.0331C29.9371 12.7999 30.1926 12.5089 30.3846 12.1769L26.9218 10.1746ZM27.2005 9.85733C27.3134 9.7709 27.4422 9.70757 27.5795 9.67095L28.61 13.5359C28.9806 13.4371 29.3281 13.2663 29.6326 13.0331L27.2005 9.85733ZM27.5801 9.6708C27.673 9.64607 27.7687 9.63372 27.8647 9.63407L27.8503 13.634C28.1065 13.635 28.3618 13.602 28.6094 13.5361L27.5801 9.6708ZM27.8563 9.63406C28.0946 9.63391 28.3263 9.71247 28.5154 9.85754L26.0805 13.0311C26.5906 13.4225 27.2157 13.6344 27.8587 13.6341L27.8563 9.63406ZM28.5154 9.85754C28.7044 10.0026 28.8403 10.206 28.9019 10.4363L25.0376 11.4696C25.2037 12.0908 25.5703 12.6397 26.0805 13.0311L28.5154 9.85754ZM28.9051 10.4484C28.3186 8.19886 27.1428 6.14644 25.499 4.50262L22.6706 7.33105C23.8114 8.47188 24.6274 9.8963 25.0344 11.4575L28.9051 10.4484ZM25.499 4.50262C23.8552 2.85881 21.8028 1.68308 19.5533 1.0966L18.5442 4.96722C20.1054 5.37424 21.5298 6.19022 22.6706 7.33105L25.499 4.50262ZM19.5639 1.09941C19.7013 1.13603 19.8301 1.19936 19.9429 1.28579L17.5109 4.46153C17.8154 4.69472 18.1629 4.8656 18.5335 4.96441L19.5639 1.09941ZM19.9429 1.28579C20.0558 1.37222 20.1505 1.48005 20.2217 1.6031L16.7589 3.60538C16.9509 3.9374 17.2064 4.22833 17.5109 4.46153L19.9429 1.28579ZM20.2217 1.6031C20.2928 1.72616 20.339 1.86203 20.3576 2.00295L16.392 2.52651C16.4422 2.90674 16.5669 3.27336 16.7589 3.60538L20.2217 1.6031ZM20.3576 2.00295C20.3762 2.14386 20.3669 2.28707 20.3301 2.4244L16.4663 1.38939C16.3671 1.75988 16.3418 2.14628 16.392 2.52651L20.3576 2.00295ZM17.3089 9.8624C18.8439 10.2717 19.7299 11.1577 20.1393 12.6928L24.0042 11.6621C23.2258 8.74298 21.2587 6.77589 18.3395 5.99746L17.3089 9.8624ZM20.1396 12.6941C20.3057 13.3153 20.6723 13.8642 21.1825 14.2556L23.6173 11.082C23.8064 11.2271 23.9423 11.4305 24.0038 11.6608L20.1396 12.6941ZM21.1825 14.2556C21.6926 14.647 22.3177 14.859 22.9607 14.8586L22.9583 10.8586C23.1966 10.8584 23.4283 10.937 23.6173 11.082L21.1825 14.2556ZM22.9523 14.8586C23.2085 14.8595 23.4638 14.8265 23.7114 14.7606L22.6821 10.8953C22.7749 10.8706 22.8706 10.8582 22.9667 10.8586L22.9523 14.8586ZM23.712 14.7604C24.0826 14.6616 24.43 14.4908 24.7345 14.2576L22.3025 11.0818C22.4154 10.9954 22.5442 10.9321 22.6815 10.8955L23.712 14.7604ZM24.7345 14.2576C25.0391 14.0244 25.2946 13.7334 25.4866 13.4014L22.0238 11.3991C22.0949 11.2761 22.1897 11.1683 22.3025 11.0818L24.7345 14.2576ZM25.4866 13.4014C25.6786 13.0694 25.8032 12.7028 25.8534 12.3225L21.8878 11.799C21.9064 11.6581 21.9526 11.5222 22.0238 11.3991L25.4866 13.4014ZM25.8534 12.3225C25.9036 11.9423 25.8784 11.5559 25.7791 11.1854L21.9154 12.2204C21.8786 12.0831 21.8692 11.9399 21.8878 11.799L25.8534 12.3225ZM25.7795 11.1866C24.8294 7.63155 22.3701 5.17224 18.8151 4.2222L17.7824 8.08659C19.955 8.66719 21.3345 10.0467 21.9151 12.2193L25.7795 11.1866ZM18.8151 4.2222C18.4447 4.12324 18.0586 4.09818 17.6786 4.14847L18.2033 8.1139C18.0625 8.13252 17.9195 8.12324 17.7824 8.08659L18.8151 4.2222ZM17.6786 4.14847C17.2986 4.19875 16.9322 4.32339 16.6003 4.51527L18.6026 7.97805C18.4797 8.04911 18.344 8.09528 18.2033 8.1139L17.6786 4.14847ZM16.6003 4.51527C15.9302 4.90278 15.4414 5.54065 15.2415 6.28855L19.1059 7.32128C19.0319 7.59828 18.8508 7.83453 18.6026 7.97805L16.6003 4.51527ZM15.2415 6.28855C15.0416 7.03645 15.1471 7.83312 15.5346 8.50329L18.9974 6.501C19.1409 6.74922 19.1799 7.04427 19.1059 7.32128L15.2415 6.28855ZM15.5346 8.50329C15.9221 9.17346 16.56 9.66225 17.3079 9.86212L18.3406 5.99774C18.6176 6.07176 18.8538 6.2528 18.9974 6.501L15.5346 8.50329ZM28.0005 22.5172C27.8014 24.0361 27.056 25.4306 25.9036 26.44L28.5391 29.449C30.4228 27.7991 31.6412 25.5198 31.9666 23.037L28.0005 22.5172ZM25.9036 26.44C24.7512 27.4493 23.2706 28.0045 21.7387 28.0016L21.7313 32.0016C24.2353 32.0063 26.6554 31.0988 28.5391 29.449L25.9036 26.44ZM21.735 28.0016C10.8547 28.0016 2.00002 19.1469 2.00002 8.26667H-1.99998C-1.99998 21.3561 8.64557 32.0016 21.735 32.0016V28.0016ZM2.00001 8.26284C1.99708 6.73141 2.55174 5.25129 3.56039 4.09894L0.550528 1.46441C-1.09816 3.34798 -2.00478 5.76731 -1.99998 8.2705L2.00001 8.26284ZM3.56039 4.09894C4.56903 2.9466 5.96268 2.20085 7.48101 2.00099L6.95899 -1.9648C4.47721 -1.63812 2.19922 -0.419152 0.550528 1.46441L3.56039 4.09894ZM7.46128 2.00349C7.49198 1.99976 7.52306 2.00609 7.54986 2.02153L9.54696 -1.44425C8.77004 -1.89193 7.86885 -2.07547 6.97873 -1.9673L7.46128 2.00349ZM7.54986 2.02153C7.57665 2.03697 7.59771 2.06069 7.60988 2.08912L11.2873 0.515472C10.9346 -0.308894 10.3239 -0.996559 9.54696 -1.44425L7.54986 2.02153ZM7.62339 2.11996L10.853 9.32924L14.5035 7.6939L11.2738 0.484627L7.62339 2.11996ZM10.8455 9.31232C10.855 9.33408 10.859 9.35787 10.857 9.38154L14.8428 9.71769C14.9007 9.03155 14.7866 8.3418 14.5109 7.71082L10.8455 9.31232ZM10.857 9.38154C10.855 9.4052 10.8471 9.42799 10.8341 9.44786L14.1795 11.6406C14.557 11.0647 14.785 10.4038 14.8428 9.71769L10.857 9.38154ZM10.8295 9.45492C10.8527 9.41921 10.878 9.3849 10.9052 9.35216L13.9798 11.9108C14.0533 11.8225 14.1215 11.7299 14.1841 11.6336L10.8295 9.45492ZM10.9117 9.34441L7.68666 13.1802L10.7483 15.7543L13.9733 11.9186L10.9117 9.34441ZM7.42325 13.5837C7.26831 13.8983 7.18771 14.2443 7.18771 14.5951H11.1877C11.1877 14.8572 11.1275 15.1157 11.0117 15.3509L7.42325 13.5837ZM7.18771 14.5951C7.18771 14.9458 7.26831 15.2918 7.42325 15.6065L11.0117 13.8393C11.1275 14.0744 11.1877 14.333 11.1877 14.5951H7.18771ZM7.42045 15.6008C8.79168 18.4077 11.6372 21.2297 14.4729 22.5941L16.2071 18.9896C14.1754 18.0121 11.9882 15.8381 11.0145 13.845L7.42045 15.6008ZM14.5102 22.6116C14.8333 22.7589 15.1863 22.829 15.541 22.8163L15.3983 18.8189C15.6638 18.8094 15.9279 18.8618 16.1698 18.9721L14.5102 22.6116ZM15.541 22.8163C15.8958 22.8036 16.2428 22.7086 16.5546 22.5386L14.6397 19.0267C14.873 18.8995 15.1328 18.8283 15.3983 18.8189L15.541 22.8163ZM16.8929 22.3061L20.6721 19.0918L18.0805 16.0448L14.3014 19.2592L16.8929 22.3061ZM20.6895 19.0768C20.6432 19.1171 20.594 19.1539 20.5424 19.1871L18.3816 15.821C18.2698 15.8928 18.1633 15.9726 18.063 16.0599L20.6895 19.0768ZM20.5714 19.1681C20.5912 19.1549 20.614 19.1469 20.6376 19.1447L20.2717 15.1615C19.5855 15.2245 18.9259 15.4577 18.3525 15.84L20.5714 19.1681ZM20.6376 19.1447C20.6613 19.1425 20.6851 19.1463 20.707 19.1556L22.2824 15.4789C21.649 15.2076 20.9579 15.0984 20.2717 15.1615L20.6376 19.1447ZM20.6768 19.1424L27.9075 22.3828L29.5433 18.7325L22.3126 15.4922L20.6768 19.1424ZM27.915 22.3861C27.9431 22.3985 27.9664 22.4197 27.9815 22.4464L31.463 20.4768C31.0249 19.7024 30.3491 19.0897 29.5358 18.7292L27.915 22.3861ZM27.9815 22.4464C27.9966 22.4731 28.0027 22.504 27.9989 22.5344L31.9682 23.0289C32.0782 22.146 31.9011 21.2512 31.463 20.4768L27.9815 22.4464ZM31.9836 22.7816V22.7771H27.9836V22.7816H31.9836ZM30.1572 22.7104C30.1959 22.2283 30.082 21.7462 29.8316 21.3323L26.4092 23.4029C26.2253 23.0989 26.1416 22.7448 26.17 22.3906L30.1572 22.7104ZM29.8316 21.3323C29.5812 20.9184 29.207 20.5938 28.762 20.4043L27.1948 24.0845C26.868 23.9453 26.5931 23.7069 26.4092 23.4029L29.8316 21.3323ZM28.7962 20.4192L21.564 17.1789L19.9284 20.8292L27.1607 24.0696L28.7962 20.4192ZM21.4662 17.1381C21.1577 17.0191 20.8272 16.9682 20.4973 16.9888L20.7468 20.981C20.5015 20.9964 20.2557 20.9585 20.0262 20.87L21.4662 17.1381ZM20.4973 16.9888C20.1674 17.0094 19.8458 17.1011 19.5546 17.2576L21.448 20.7811C21.2314 20.8975 20.9922 20.9657 20.7468 20.981L20.4973 16.9888ZM19.2052 17.4961L15.4276 20.7105L18.0198 23.7569L21.7974 20.5426L19.2052 17.4961ZM15.4433 20.6972C15.4759 20.6701 15.4997 20.6534 15.5086 20.6474L17.7673 23.9486C17.8344 23.9027 17.9164 23.8432 18.0041 23.7701L15.4433 20.6972ZM15.5284 20.634C15.5078 20.6477 15.4841 20.6558 15.4595 20.6576L15.7492 24.6471C16.4633 24.5953 17.1518 24.3592 17.7476 23.9619L15.5284 20.634ZM15.4595 20.6576C15.4348 20.6594 15.4102 20.6548 15.3878 20.6442L13.6728 24.2579C14.3196 24.5649 15.035 24.699 15.7492 24.6471L15.4595 20.6576ZM15.4003 20.6502C12.9887 19.4851 10.5172 17.0328 9.359 14.6575L5.76368 16.4107C7.32077 19.6039 10.4514 22.7016 13.6603 24.2519L15.4003 20.6502ZM9.36435 14.6686C9.35371 14.6464 9.34897 14.6219 9.35059 14.5973L5.35935 14.3328C5.31217 15.0446 5.4496 15.7565 5.75832 16.3996L9.36435 14.6686ZM9.35059 14.5973C9.35222 14.5728 9.36016 14.549 9.37364 14.5285L6.02761 12.3366C5.63671 12.9334 5.40653 13.621 5.35935 14.3328L9.35059 14.5973ZM9.38361 14.5131C9.34887 14.5672 9.31009 14.6186 9.26761 14.6669L6.26527 12.0238C6.17457 12.1268 6.09179 12.2365 6.01764 12.352L9.38361 14.5131ZM9.29756 14.632L12.5211 10.7963L9.45883 8.22281L6.23532 12.0586L9.29756 14.632ZM12.8073 10.3445C12.9461 10.0425 13.0179 9.71407 13.0179 9.38173H9.01791C9.01791 9.13764 9.07066 8.8964 9.1726 8.67454L12.8073 10.3445ZM13.0179 9.38173C13.0179 9.04941 12.9461 8.72097 12.8073 8.41893L9.1726 10.0889C9.07066 9.86706 9.01791 9.62582 9.01791 9.38173H13.0179ZM12.816 8.43813L9.59249 1.22273L5.94039 2.85433L9.1639 10.0697L12.816 8.43813ZM9.64377 1.34888C9.48352 0.912644 9.1952 0.534997 8.8166 0.265449L6.49668 3.52397C6.21859 3.32598 6.00681 3.0486 5.88911 2.72818L9.64377 1.34888ZM8.8166 0.265449C8.43801 -0.00409354 7.9868 -0.152961 7.52214 -0.161636L7.44747 3.83767C7.10617 3.83129 6.77476 3.72195 6.49668 3.52397L8.8166 0.265449ZM7.4848 -0.161985H7.4496V3.83802H7.4848V-0.161985ZM7.18588 -0.144521C5.14758 0.126619 3.27764 1.13038 1.92526 2.67933L4.93841 5.3101C5.65178 4.49305 6.63814 3.96357 7.71332 3.82055L7.18588 -0.144521ZM1.92526 2.67933C0.572879 4.22829 -0.169489 6.21652 -0.163217 8.27277L3.83676 8.26057C3.83346 7.17592 4.22505 6.12715 4.93841 5.3101L1.92526 2.67933ZM-0.163227 8.26667C-0.163227 20.3428 9.65885 30.1649 21.735 30.1649V26.1649C11.868 26.1649 3.83677 18.1337 3.83677 8.26667H-0.163227ZM21.7289 30.1649C23.7855 30.1711 25.774 29.4284 27.323 28.0756L24.6918 25.0628C23.8747 25.7764 22.8258 26.1682 21.741 26.1649L21.7289 30.1649ZM27.323 28.0756C28.872 26.7228 29.8755 24.8524 30.1462 22.8138L26.181 22.2873C26.0383 23.3626 25.5089 24.3493 24.6918 25.0628L27.323 28.0756Z" fill="#555555" mask="url(#path-1-inside-1_30_194)"/>
</svg>
