<svg width="34" height="47" viewBox="0 0 34 47" fill="none" xmlns="http://www.w3.org/2000/svg">
<path d="M32 17.0015C32 25.3015 17 45.3348 17 45.3348C17 45.3348 2 25.3015 2 17.0015C2 13.0232 3.58035 9.20791 6.3934 6.39486C9.20644 3.58182 13.0218 2.00146 17 2.00146C20.9782 2.00146 24.7936 3.58182 27.6066 6.39486C30.4196 9.20791 32 13.0232 32 17.0015Z" stroke="#555555" stroke-width="3" stroke-linecap="round" stroke-linejoin="round"/>
<path d="M17 22.0015C19.7614 22.0015 22 19.7629 22 17.0015C22 14.24 19.7614 12.0015 17 12.0015C14.2386 12.0015 12 14.24 12 17.0015C12 19.7629 14.2386 22.0015 17 22.0015Z" stroke="#555555" stroke-width="3" stroke-linecap="round" stroke-linejoin="round"/>
</svg>
