<svg width="30" height="30" viewBox="0 0 30 30" fill="none" xmlns="http://www.w3.org/2000/svg">
<path d="M15.817 17.9408L15.5603 17.8176C14.0855 17.1104 12.8962 15.9211 12.1889 14.4463L12.0658 14.1895L12.2238 13.9526L13.8886 11.4569C13.8886 11.4568 13.8887 11.4568 13.8887 11.4567C13.8984 11.4421 13.9041 11.4252 13.9052 11.4077C13.9062 11.3902 13.9027 11.3727 13.8949 11.357C13.8949 11.357 13.8949 11.3569 13.8948 11.3568L11.495 6.55708L11.4944 6.55597C11.4861 6.53926 11.4733 6.52521 11.4574 6.5154C11.4416 6.50559 11.4233 6.50041 11.4046 6.50045L11.4036 6.50045C10.104 6.50045 8.85754 7.01674 7.93853 7.93574C7.01955 8.85473 6.50326 10.1011 6.50324 11.4008L15.817 17.9408ZM15.817 17.9408L16.0539 17.7827M15.817 17.9408L16.0539 17.7827M16.0539 17.7827L18.5496 16.1179L18.2728 15.7019L18.5501 16.1176L18.5499 16.1178C18.5645 16.1081 18.5814 16.1025 18.5988 16.1014C18.6164 16.1003 18.6339 16.1038 18.6497 16.1117M16.0539 17.7827L24.0046 18.6014C24.0046 20.0337 23.4356 21.4073 22.4228 22.4201C21.4101 23.4328 20.0365 24.0018 18.6042 24.0018M18.6042 24.0018L18.6047 23.5018M18.6042 24.0018V23.5018C18.6044 23.5018 18.6045 23.5018 18.6047 23.5018M18.6042 24.0018L18.6047 23.5018M18.6047 23.5018C19.9042 23.5017 21.1504 22.9854 22.0693 22.0665C22.9883 21.1475 23.5046 19.9011 23.5046 18.6014V18.601C23.5046 18.5824 23.4994 18.5642 23.4897 18.5484C23.4799 18.5326 23.4659 18.5198 23.4493 18.5115M18.6047 23.5018C15.3963 23.4984 12.3202 22.2223 10.0515 19.9536C7.78287 17.685 6.50681 14.6091 6.50324 11.4009L18.6047 23.5018ZM23.4493 18.5115L23.4494 18.5116L23.6731 18.0644L23.4493 18.5115ZM23.4493 18.5115L18.6497 16.1117M18.6497 16.1117L18.8726 15.6643L18.6491 16.1114L18.6497 16.1117ZM2.42627 22.2263L2.35676 22.4348L0.571624 27.7887L0.571615 27.7887C0.495219 28.0178 0.484133 28.2637 0.539597 28.4987L0.0529646 28.6135L0.539597 28.4987C0.595062 28.7337 0.714886 28.9486 0.885638 29.1194L0.533685 29.4713L0.88564 29.1194C1.05639 29.2901 1.27132 29.41 1.50635 29.4654C1.74138 29.5209 1.98721 29.5098 2.21628 29.4334L2.21631 29.4334L7.57021 27.6483L7.77858 27.5788L7.9707 27.6853C9.90667 28.758 12.0625 29.3733 14.273 29.4841C16.4836 29.5949 18.6901 29.1982 20.7236 28.3244C22.7572 27.4506 24.5637 26.123 26.0048 24.4431C27.446 22.7633 28.4834 20.7759 29.0378 18.6331C29.5921 16.4903 29.6486 14.2491 29.203 12.0812C28.7573 9.9132 27.8213 7.87601 26.4666 6.12569C25.112 4.37537 23.3746 2.95837 21.3877 1.98324C19.4008 1.00812 17.2171 0.500754 15.0038 0.5L2.42627 22.2263ZM2.42627 22.2263L2.31969 22.0342M2.42627 22.2263L2.31969 22.0342M2.31969 22.0342C1.09529 19.8264 0.46847 17.3373 0.501221 14.813C0.533971 12.2887 1.22516 9.81667 2.50642 7.64145C3.78767 5.46622 5.6146 3.66318 7.8065 2.41065C9.99837 1.15814 12.4792 0.499544 15.0037 0.5L2.31969 22.0342ZM1.23588 28.0101L3.10502 22.4027C3.13198 22.3221 3.14151 22.2367 3.13298 22.1521C3.12444 22.0675 3.09804 21.9857 3.05552 21.9121M1.23588 28.0101L0.761561 27.8519M1.23588 28.0101L0.761539 27.852L0.761561 27.8519M1.23588 28.0101L3.05552 21.9121M0.761561 27.8519L2.63068 22.2446L2.63084 22.2441C2.63534 22.2306 2.63693 22.2164 2.6355 22.2023C2.63408 22.1882 2.62968 22.1746 2.62259 22.1623M0.761561 27.8519C0.696923 28.0457 0.687542 28.2537 0.734471 28.4526C0.7814 28.6515 0.882784 28.8333 1.02725 28.9778L1.38081 28.6242L1.02726 28.9778C1.17173 29.1222 1.35359 29.2236 1.55244 29.2706C1.75128 29.3175 1.95925 29.3081 2.15305 29.2435C2.15307 29.2435 2.15309 29.2435 2.15311 29.2435L7.76047 27.3744L7.76362 27.3733C7.7726 27.3702 7.78199 27.3686 7.79146 27.3685C7.80972 27.3688 7.82761 27.3737 7.84344 27.3828L8.09289 26.9495L7.84266 27.3824C10.0195 28.6407 12.4896 29.3029 15.004 29.3022M2.62259 22.1623C2.62263 22.1624 2.62268 22.1624 2.62272 22.1625L3.05552 21.9121M2.62259 22.1623L3.05552 21.9121M2.62259 22.1623C1.046 19.437 0.412844 16.2676 0.821336 13.1457C1.22984 10.0237 2.65721 7.12382 4.88203 4.89588C7.10684 2.66793 10.0047 1.23648 13.1261 0.823588C16.2475 0.410697 19.4179 1.03945 22.1455 2.6123C24.8731 4.18515 27.0053 6.61418 28.2115 9.52255C29.4177 12.4309 29.6304 15.6561 28.8165 18.6977C28.0027 21.7392 26.2078 24.4272 23.7104 26.3446C21.213 28.262 18.1526 29.3016 15.004 29.3022M15.004 29.3022L15.0039 28.8022L15.004 29.3022ZM11.9422 6.33347C11.8924 6.23327 11.8156 6.14899 11.7204 6.09014C11.6252 6.0313 11.5155 6.00023 11.4036 6.00045C9.97136 6.00045 8.59775 6.56942 7.58498 7.58219L11.9422 6.33347ZM18.6037 23.3017H18.6039C19.7803 23.3024 20.9143 22.8618 21.7817 22.0671C22.6491 21.2724 23.187 20.1813 23.2891 19.0093L23.3186 18.6707L23.0145 18.5187L18.8727 16.4485L18.6136 16.319L18.3723 16.4794L15.8911 18.1296L15.8898 18.1304C15.8761 18.1396 15.8604 18.1452 15.844 18.1468C15.8276 18.1484 15.811 18.146 15.7958 18.1397L15.604 18.6014L15.7978 18.1405C14.0239 17.3943 12.6126 15.9835 11.8657 14.21C11.8598 14.1951 11.8576 14.179 11.8592 14.1631C11.8608 14.1467 11.8665 14.131 11.8757 14.1174L11.877 14.1154L13.5271 11.6342L13.6876 11.393L13.558 11.1338L11.4879 6.992L11.3359 6.68804L10.9974 6.71741C9.82539 6.81909 8.73411 7.35656 7.93909 8.22368C7.14408 9.0908 6.70313 10.2245 6.70333 11.4009L6.70333 11.4014C6.70664 14.5565 7.96149 17.5815 10.1925 19.8125C12.4235 22.0435 15.4485 23.2984 18.6037 23.3017ZM0.0973349 27.6306L0.0973746 27.6306L0.0973349 27.6306Z" fill="#555555" stroke="#555555"/>
</svg>
